# Exported from Wings 3D 2.2.6.1
mtllib Test.mtl
o Torus
#18 vertices, 36 faces
v 3.8270212e-17 3.75000000 0.0000000e+0
v 0.10825318 3.56250000 0.0000000e+0
v -0.10825318 3.56250000 0.0000000e+0
v 1.9135106e-17 3.43750000 0.54126588
v 0.10825318 3.34375000 0.37888611
v -0.10825318 3.34375000 0.37888611
v -1.9135106e-17 2.81250000 0.54126588
v 0.10825318 2.90625000 0.37888611
v -0.10825318 2.90625000 0.37888611
v -3.8270212e-17 2.50000000 7.6540425e-17
v 0.10825318 2.68750000 5.3578297e-17
v -0.10825318 2.68750000 5.3578297e-17
v -1.9135106e-17 2.81250000 -0.54126588
v 0.10825318 2.90625000 -0.37888611
v -0.10825318 2.90625000 -0.37888611
v 1.9135106e-17 3.43750000 -0.54126588
v 0.10825318 3.34375000 -0.37888611
v -0.10825318 3.34375000 -0.37888611
vt 0.0000000e+0 0.43176447
vt 0.0000000e+0 0.57943599
vt 4.8572257e-17 0.77192433
vt 9.0205621e-17 0.96441267
vt 2.2363650e-3 0.14381972
vt 8.4407885e-2 0.38436130
vt 8.5897784e-2 0.19252822
vt 9.5257022e-2 0.57943599
vt 9.5257022e-2 0.57943599
vt 9.5257022e-2 0.96441267
vt 9.5257022e-2 0.77192433
vt 9.5257022e-2 0.77192433
vt 9.5257022e-2 0.96441267
vt 0.19051404 0.57943599
vt 0.19051404 0.77192433
vt 0.19051404 0.57943599
vt 0.19051404 0.96441267
vt 0.19051404 0.77192433
vt 0.19051404 0.77192433
vt 0.19051404 0.96441267
vt 0.24683915 0.57943599
vt 0.24759155 0.48256072
vt 0.25058703 9.6875277e-2
vt 0.25133942 0.0000000e+0
vt 0.28577107 0.57943599
vt 0.28577107 0.77192433
vt 0.28577107 0.77192433
vt 0.28577107 0.96441267
vt 0.41228079 0.38690777
vt 0.41377069 0.19507470
vt 0.49594221 0.43561628
vt 0.49817857 0.14188074
vt 0.49817857 0.14767153
vt 0.50041250 0.42951151
vt 0.58207756 0.19031984
vt 0.58404993 0.38076181
vt 0.74799132 9.6806983e-2
vt 0.74839108 0.0000000e+0
vt 0.74978749 0.57348822
vt 0.75018725 0.47668124
vt 0.91412865 0.19272641
vt 0.91610102 0.38316838
vt 0.99776607 0.14397672
vt 1.00000000 0.43160748
vn -0.23942607 0.96762892 -7.9808688e-2
vn 0.77402309 -0.62728926 8.6002566e-2
vn -0.90728704 -0.42051187 6.0530653e-17
vn 0.23942607 0.41469811 0.87789557
vn 0.90728704 -0.21025594 -0.36417396
vn -0.77402309 -0.23916422 -0.58624972
vn -0.32539569 -0.56360186 0.75925660
vn 0.90728704 0.21025594 -0.36417396
vn -0.98728331 0.15252959 -4.4792705e-2
vn 0.32539569 -0.93933644 0.10846523
vn 0.98728331 0.11505641 -0.10969815
vn -0.90728704 0.42051187 4.6911256e-16
vn -8.6666757e-17 -0.50000000 -0.86602540
vn 0.69701467 0.52426507 0.48920004
vn -0.69701467 0.16152713 0.69862689
vn -4.0444487e-16 0.50000000 -0.86602540
vn 0.96950855 2.7598888e-2 0.24349839
vn -0.96950855 -0.22467524 9.7847857e-2
g Torus
usemtl Torus4_auv
s 1
f 1/21/1 4/1/4 2/22/2
f 1/39/1 6/42/6 4/44/4
f 1/21/1 17/29/17 16/31/16
f 1/39/1 18/36/18 3/40/3
f 2/22/2 4/1/4 5/6/5
f 2/3/2 6/8/6 3/11/3
f 2/22/2 17/29/17 1/21/1
f 2/3/2 18/10/18 17/4/17
f 3/40/3 6/42/6 1/39/1
f 3/11/3 18/10/18 2/3/2
f 4/1/4 8/7/8 5/6/5
f 4/44/4 9/41/9 7/43/7
f 5/2/5 6/8/6 2/3/2
f 5/19/5 8/16/8 6/26/6
f 6/26/6 8/16/8 9/25/9
f 6/42/6 9/41/9 4/44/4
f 7/5/7 8/7/8 4/1/4
f 7/5/7 10/24/10 8/7/8
f 7/43/7 12/37/12 10/38/10
f 8/7/8 10/24/10 11/23/11
f 8/14/8 12/12/12 9/9/9
f 9/41/9 12/37/12 7/43/7
f 10/24/10 13/33/13 11/23/11
f 11/15/11 12/12/12 8/14/8
f 11/23/11 13/33/13 14/30/14
f 11/15/11 14/17/14 12/12/12
f 12/37/12 13/32/13 10/38/10
f 12/12/12 14/17/14 15/13/15
f 13/33/13 17/29/17 14/30/14
f 13/32/13 18/36/18 16/34/16
f 14/27/14 17/28/17 15/18/15
f 15/35/15 13/32/13 12/37/12
f 15/18/15 17/28/17 18/20/18
f 15/35/15 18/36/18 13/32/13
f 16/31/16 17/29/17 13/33/13
f 16/34/16 18/36/18 1/39/1
o ArmSecondary
#4 vertices, 4 faces
v 0.25000000 1.50000000 -4.9789963e-17
v -0.12500000 1.50000000 0.21650635
v -0.12500000 1.50000000 -0.21650635
v 0.0000000e+0 2.50000000 -4.9789963e-17
vt 0.0000000e+0 2.1276596e-2
vt 0.0000000e+0 0.85106383
vt 0.19807433 0.70212766
vt 0.25796501 0.70212766
vt 0.25796501 1.00000000
vt 0.29711149 0.0000000e+0
vt 0.39614865 0.70212766
vt 0.59422298 3.3306691e-16
vt 0.59422298 2.1276596e-2
vt 0.74315915 0.69326014
vt 0.89209532 0.0000000e+0
vn 0.79701294 -0.60396223 -1.0700980e-15
vn -0.39850647 -0.60396223 0.69023345
vn -0.39850647 -0.60396223 -0.69023345
vn 0.0000000e+0 1.00000000 8.9509042e-16
g ArmSecondary
usemtl cone2_copy3_auv
s 1
f 19/53/19 22/51/22 20/50/20
f 20/48/20 21/49/21 19/46/19
f 20/55/20 22/54/22 21/52/21
f 21/50/21 22/47/22 19/45/19
o ArmPrimary
#4 vertices, 4 faces
v 0.25000000 1.50000000 -6.1232340e-17
v -0.12500000 1.50000000 -0.21650635
v -0.12500000 1.50000000 0.21650635
v 0.0000000e+0 0.50000000 6.1232340e-17
vt 0.0000000e+0 0.70212766
vt 1.1102230e-16 1.00000000
vt 9.9037163e-2 0.0000000e+0
vt 0.25796501 0.85106383
vt 0.29711149 0.68085106
vt 0.29711149 0.68085106
vt 0.49518582 0.0000000e+0
vt 0.59422298 0.69326014
vt 0.59422298 0.70212766
vt 0.74315915 0.0000000e+0
vt 0.89209532 0.69326014
vn 0.79701294 0.60396223 -8.0257347e-16
vn -0.39850647 0.60396223 -0.69023345
vn -0.39850647 0.60396223 0.69023345
vn -4.4754521e-16 -1.00000000 0.0000000e+0
g ArmPrimary
usemtl cone2_auv
s 1
f 23/60/23 26/62/26 24/64/24
f 24/57/24 25/56/25 23/59/23
f 24/63/24 26/65/26 25/66/25
f 25/56/25 26/58/26 23/61/23
o Base
#8 vertices, 12 faces
v 0.43301270 0.25000000 0.0000000e+0
v -0.21650635 0.25000000 0.37500000
v -0.21650635 0.25000000 -0.37500000
v 0.43301270 -0.25000000 0.0000000e+0
v -0.21650635 -0.25000000 0.37500000
v -0.21650635 -0.25000000 -0.37500000
v 0.0000000e+0 0.50000000 0.0000000e+0
v 0.0000000e+0 -0.50000000 0.0000000e+0
vt 0.0000000e+0 0.16332403
vt 0.0000000e+0 0.75426727
vt 8.3266727e-17 0.41024675
vt 2.4212765e-2 1.00000000
vt 0.16828431 0.57357078
vt 0.18519204 0.57357078
vt 0.18519204 0.0000000e+0
vt 0.36859909 0.71794813
vt 0.37038408 0.16332403
vt 0.37038408 0.41024675
vt 0.37038408 0.41024675
vt 0.37038408 0.16332403
vt 0.39281185 0.57357078
vt 0.39281185 0.96368085
vt 0.50829938 0.79182169
vt 0.55557612 0.0000000e+0
vt 0.55557612 0.57357078
vt 0.73927444 0.70452133
vt 0.74076817 0.16332403
vt 0.74076817 0.41024675
vn 0.82082631 0.47639528 0.31510586
vn -0.40083551 0.59776550 0.69426746
vn -0.45162344 0.42912128 -0.78223474
vn 0.82082631 -0.47639528 -0.31510586
vn -0.45162344 -0.42912128 0.78223474
vn -0.40083551 -0.59776550 -0.69426746
vn -2.8264895e-17 1.00000000 -5.6529789e-17
vn 2.8264895e-17 -1.00000000 -5.6529789e-17
g Base
usemtl sphere1_auv
s 1
f 27/76/27 30/75/30 29/86/29
f 27/80/27 31/68/31 30/74/30
f 27/84/27 33/81/33 28/79/28
f 28/70/28 31/68/31 27/80/27
f 28/77/28 33/72/33 29/69/29
f 29/86/29 30/75/30 32/85/32
f 29/69/29 31/78/31 28/77/28
f 29/86/29 33/83/33 27/76/27
f 30/75/30 34/82/34 32/85/32
f 31/68/31 34/71/34 30/74/30
f 32/67/32 31/78/31 29/69/29
f 32/67/32 34/73/34 31/78/31
